<?xml version="1.0" standalone="no"?>
<!DOCTYPE svg PUBLIC "-//W3C//DTD SVG 20010904//EN"
 "http://www.w3.org/TR/2001/REC-SVG-20010904/DTD/svg10.dtd">
<svg version="1.0" xmlns="http://www.w3.org/2000/svg"
 width="200.000000pt" height="200.000000pt" viewBox="0 0 200.000000 200.000000"
 preserveAspectRatio="xMidYMid meet">
<metadata>
Created by potrace 1.11, written by Peter Selinger 2001-2013
</metadata>
<g transform="translate(0.000000,200.000000) scale(0.100000,-0.100000)"
fill="#000000" stroke="none">
<path d="M830 1732 c-174 -53 -318 -209 -348 -379 -13 -76 -6 -181 17 -247
121 -345 549 -447 805 -192 99 99 147 213 147 350 -1 204 -127 382 -323 458
-72 28 -221 33 -298 10z"/>
<path d="M253 809 c-106 -20 -171 -89 -147 -158 5 -14 20 -31 34 -38 22 -11
26 -10 33 9 5 15 2 25 -13 35 -29 21 -25 47 15 82 20 17 37 31 38 31 1 0 31 3
67 6 77 7 117 -6 130 -41 13 -35 -11 -92 -45 -105 -30 -11 -34 -40 -5 -40 24
0 50 -42 30 -48 -20 -7 -61 -53 -71 -80 -15 -38 -10 -62 16 -88 21 -21 32 -24
62 -19 68 11 115 77 106 153 -2 23 1 32 11 32 8 0 22 3 30 6 14 5 16 -1 12
-44 -5 -58 19 -107 58 -121 45 -18 146 21 146 55 0 15 -2 15 -25 0 -31 -20
-59 -20 -80 0 -22 22 -16 34 28 49 79 27 107 63 93 119 -13 54 -125 55 -175 2
-12 -13 -30 -23 -39 -22 -9 2 -31 0 -48 -4 -21 -5 -41 -2 -64 10 l-32 17 35
21 c48 28 68 88 43 126 -9 14 -29 32 -45 41 -35 18 -140 25 -198 14z m447
-208 c14 -26 -1 -63 -35 -85 l-27 -18 6 39 c3 21 5 41 6 45 0 7 29 38 35 38 3
0 9 -9 15 -19z m-294 -146 c-8 -39 -26 -57 -45 -46 -19 12 -6 59 22 82 26 20
32 11 23 -36z"/>
<path d="M1824 812 c-6 -4 -14 -39 -17 -78 -9 -97 -13 -105 -44 -93 -74 28
-138 -32 -150 -139 -6 -57 8 -95 41 -118 24 -15 28 -15 67 5 23 12 44 19 47
16 3 -3 1 -5 -4 -5 -5 -1 2 -7 15 -14 25 -14 69 -6 99 17 20 15 15 36 -8 30
-17 -4 -20 0 -20 25 0 16 7 65 15 108 8 44 17 93 20 109 3 17 8 56 12 88 l6
57 -34 0 c-19 0 -39 -4 -45 -8z m-41 -209 c2 -5 -3 -43 -12 -87 -13 -65 -20
-80 -38 -87 -19 -7 -24 -4 -29 17 -8 30 0 99 15 137 7 19 18 27 35 27 14 0 27
-3 29 -7z"/>
<path d="M260 741 c-15 -5 -23 -13 -21 -22 9 -29 1 -80 -28 -200 -17 -67 -31
-127 -31 -131 0 -10 71 -10 86 0 6 4 14 29 18 55 10 64 11 68 35 166 12 46 21
97 21 112 0 25 -4 29 -27 28 -16 -1 -39 -4 -53 -8z"/>
<path d="M858 642 c-36 -3 -38 -5 -39 -40 0 -20 -2 -46 -5 -57 -2 -11 -7 -46
-10 -77 -10 -88 20 -109 100 -68 l39 19 -6 -49 c-3 -27 -11 -59 -18 -72 -11
-21 -12 -21 -26 -2 -8 10 -18 26 -23 34 -7 11 -13 12 -34 2 -78 -35 -9 -96 89
-78 53 10 74 49 97 179 10 62 21 136 25 165 l5 52 -38 -6 c-22 -3 -40 -7 -41
-8 -3 -3 -12 -59 -19 -116 -3 -30 -11 -61 -17 -68 -11 -13 -53 -13 -51 1 0 4
7 46 14 93 8 51 10 88 4 92 -5 4 -26 6 -46 4z"/>
<path d="M1144 634 c-90 -44 -103 -222 -19 -254 58 -22 121 24 155 114 10 27
22 40 38 42 19 3 22 0 17 -19 -32 -141 -32 -137 8 -137 46 0 53 9 61 65 14 94
27 134 48 141 11 3 22 3 25 0 3 -3 0 -41 -8 -83 -7 -43 -12 -85 -10 -93 7 -38
43 -45 94 -17 40 22 45 44 7 39 -19 -3 -22 0 -17 20 34 147 33 181 -5 192 -13
3 -39 -2 -61 -13 -36 -18 -38 -18 -47 -1 -7 14 -18 17 -47 13 -60 -7 -65 -10
-52 -31 16 -26 5 -51 -20 -49 -15 1 -21 8 -21 25 0 47 -17 62 -68 62 -26 0
-61 -7 -78 -16z m54 -50 c-1 -37 12 -54 45 -54 22 0 21 -7 -6 -55 -42 -75 -92
-49 -82 44 4 37 29 101 40 101 2 0 4 -16 3 -36z"/>
</g>
</svg>
